HIERARCHY
ROOT Hips
{
	OFFSET 0.00000 0.00000 0.00000
	CHANNELS 6 Xposition Yposition Zposition Zrotation Yrotation Xrotation 
	JOINT LHipJoint
	{
		OFFSET 0 0 0
		CHANNELS 3 Zrotation Yrotation Xrotation
		JOINT LeftUpLeg
		{
			OFFSET 1.62964 -1.40469 0.78906
			CHANNELS 3 Zrotation Yrotation Xrotation
			JOINT LeftLeg
			{
				OFFSET 2.29640 -6.30932 0.00000
				CHANNELS 3 Zrotation Yrotation Xrotation
				JOINT LeftFoot
				{
					OFFSET 2.29451 -6.30412 0.00000
					CHANNELS 3 Zrotation Yrotation Xrotation
					JOINT LeftToeBase
					{
						OFFSET 0.03611 -0.09921 1.56387
						CHANNELS 3 Zrotation Yrotation Xrotation
						End Site
						{
							OFFSET 0.00000 -0.00000 0.80291
						}
					}
				}
			}
		}
	}
	JOINT RHipJoint
	{
		OFFSET 0 0 0
		CHANNELS 3 Zrotation Yrotation Xrotation
		JOINT RightUpLeg
		{
			OFFSET -1.73712 -1.40469 0.78906
			CHANNELS 3 Zrotation Yrotation Xrotation
			JOINT RightLeg
			{
				OFFSET -2.28137 -6.26801 0.00000
				CHANNELS 3 Zrotation Yrotation Xrotation
				JOINT RightFoot
				{
					OFFSET -2.28681 -6.28298 0.00000
					CHANNELS 3 Zrotation Yrotation Xrotation
					JOINT RightToeBase
					{
						OFFSET -0.15927 -0.43759 1.61103
						CHANNELS 3 Zrotation Yrotation Xrotation
						End Site
						{
							OFFSET -0.00000 -0.00000 0.84630
						}
					}
				}
			}
		}
	}
	JOINT LowerBack
	{
		OFFSET 0 0 0
		CHANNELS 3 Zrotation Yrotation Xrotation
		JOINT Spine
		{
			OFFSET -0.04227 2.04338 -0.00225
			CHANNELS 3 Zrotation Yrotation Xrotation
			JOINT Spine1
			{
				OFFSET -0.02148 2.04482 -0.04273
				CHANNELS 3 Zrotation Yrotation Xrotation
				JOINT Neck
				{
					OFFSET 0 0 0
					CHANNELS 3 Zrotation Yrotation Xrotation
					JOINT Neck1
					{
						OFFSET 0.09180 1.44629 0.19359
						CHANNELS 3 Zrotation Yrotation Xrotation
						JOINT Head
						{
							OFFSET 0.00887 1.40645 0.14750
							CHANNELS 3 Zrotation Yrotation Xrotation
							End Site
							{
								OFFSET -0.00669 1.50671 0.03707
							}
						}
					}
				}
				JOINT LeftShoulder
				{
					OFFSET 0 0 0
					CHANNELS 3 Zrotation Yrotation Xrotation
					JOINT LeftArm
					{
						OFFSET 2.17674 1.86763 -0.06520
						CHANNELS 3 Zrotation Yrotation Xrotation
						JOINT LeftForeArm
						{
							OFFSET 4.65776 -0.00000 0.00000
							CHANNELS 3 Zrotation Yrotation Xrotation
							JOINT LeftHand
							{
								OFFSET 3.55539 -0.00000 0.00000
								CHANNELS 3 Zrotation Yrotation Xrotation
								JOINT LeftFingerBase
								{
									OFFSET 0 0 0
									CHANNELS 3 Zrotation Yrotation Xrotation
									JOINT LeftHandIndex1
									{
										OFFSET 0.70726 -0.00000 0.00000
										CHANNELS 3 Zrotation Yrotation Xrotation
										End Site
										{
											OFFSET 0.57022 -0.00000 0.00000
										}
									}
								}
								JOINT LThumb
								{
									OFFSET 0 0 0
									CHANNELS 3 Zrotation Yrotation Xrotation
									End Site
									{
										OFFSET 0.57892 -0.00000 0.57892
									}
								}
							}
						}
					}
				}
				JOINT RightShoulder
				{
					OFFSET 0 0 0
					CHANNELS 3 Zrotation Yrotation Xrotation
					JOINT RightArm
					{
						OFFSET -2.80694 1.55459 -0.32496
						CHANNELS 3 Zrotation Yrotation Xrotation
						JOINT RightForeArm
						{
							OFFSET -4.71925 -0.00000 -0.00000
							CHANNELS 3 Zrotation Yrotation Xrotation
							JOINT RightHand
							{
								OFFSET -3.56990 -0.00000 0.00000
								CHANNELS 3 Zrotation Yrotation Xrotation
								JOINT RightFingerBase
								{
									OFFSET 0 0 0
									CHANNELS 3 Zrotation Yrotation Xrotation
									JOINT RightHandIndex1
									{
										OFFSET -0.50776 -0.00000 0.00000
										CHANNELS 3 Zrotation Yrotation Xrotation
										End Site
										{
											OFFSET -0.40937 -0.00000 0.00000
										}
									}
								}
								JOINT RThumb
								{
									OFFSET 0 0 0
									CHANNELS 3 Zrotation Yrotation Xrotation
									End Site
									{
										OFFSET -0.41562 -0.00000 0.41562
									}
								}
							}
						}
					}
				}
			}
		}
	}
}
MOTION
Frames: 5
Frame Time: .0083333
-1.2461 19.6053 20.2365 0 0 0 0 0 0 -21 0 0 0 0 0 0 0 0 0 0 0 0 0 0 21 0 0 0 0 0 0 0 0 0 0 0 0 0 0 0 0 0 0 0 0 0 0 -16 0 0 21 0 0 11 0 0 0 -8 0 0 0 0 0 0 0 0 0 0 0 0 0 0 0 0 0 0 0 0 8 0 0 0 0 0 0 0 0 0 0 0 0 0 0 0 0 0
-1.2461 19.6053 20.2365 177.8300 -2.6700 -152.5910 0.0000 0.0000 0.0000 -22.5332 -14.5383 -18.4455 0.0954 1.9917 5.4826 0.1922 -2.3217 -7.8023 2.0522 -8.9739 -25.7136 0.0000 0.0000 0.0000 17.3158 13.8285 -20.0943 -0.1057 -2.0968 5.7734 -0.9621 3.3609 -17.7136 -1.4688 7.6587 -21.6821 -8.6895 -3.0934 -31.9694 -0.4464 -1.7000 -1.6229 3.3888 -1.6663 14.9561 0.0446 -3.1579 -5.3469 2.6864 -4.5461 7.1277 0.6590 -2.1891 3.3016 -0.0000 -0.0000 0.0000 -84.4274 -0.7167 27.0305 10.8105 -17.9972 -1.7169 -0.0000 0.0000 -1.4604 20.7063 -9.8996 -3.7182 -7.1250 0.0000 -0.0000 -4.4720 19.4285 2.7381 -0.0000 -0.0000 0.0000 90.9954 -1.5970 11.3644 -15.3502 24.6317 -3.3706 0.0000 -0.0000 -2.6473 -6.7855 -52.6818 5.4057 7.1250 -0.0000 -0.0000 68.1509 -73.6757 -51.6457
-1.2522 19.6052 20.2364 177.9880 -2.6785 -152.6260 0.0000 0.0000 0.0000 -22.3843 -14.4396 -18.4541 0.0958 1.9960 5.4946 0.1910 -2.3558 -7.7751 2.0554 -8.9805 -25.7343 0.0000 0.0000 0.0000 17.4922 13.8549 -20.0590 -0.1059 -2.0986 5.7783 -0.9605 3.3717 -17.6963 -1.4898 7.7109 -21.8393 -8.5319 -3.0387 -31.9748 -0.4041 -1.6890 -1.6288 3.3567 -1.6510 14.9517 -0.0132 -3.2513 -5.4529 2.7558 -4.6822 7.2807 0.6825 -2.2543 3.3811 0.0000 -0.0000 0.0000 -84.4447 -0.5792 27.0888 10.7527 -17.9082 -1.6991 -0.0000 0.0000 -1.6502 19.7178 -9.2565 -3.2995 -7.1250 0.0000 -0.0000 -5.1702 20.1771 3.0820 0.0000 -0.0000 0.0000 90.9910 -1.6379 10.8616 -15.2300 24.4656 -3.3206 0.0000 -0.0000 -2.3783 -6.3568 -53.1905 5.0969 7.1250 -0.0000 -0.0000 70.0334 -73.6725 -53.3641
-1.2586 19.6054 20.2378 178.0490 -2.6664 -152.6620 0.0000 0.0000 0.0000 -22.3757 -14.2835 -18.4734 0.0959 1.9976 5.4991 0.1875 -2.4546 -7.6978 2.0097 -8.8863 -25.4402 0.0000 0.0000 0.0000 17.5921 13.6514 -20.1116 -0.1072 -2.1108 5.8120 -0.9599 3.5705 -17.6616 -1.4847 7.6982 -21.8010 -8.4249 -2.9812 -31.9383 -0.4456 -1.6518 -1.6400 3.2713 -1.6256 14.9160 0.1272 -3.3439 -5.4999 2.7153 -4.8233 7.3903 0.6365 -2.3218 3.4249 -0.0000 -0.0000 0.0000 -84.3351 -0.4373 27.0432 10.6456 -17.7430 -1.6663 -0.0000 0.0000 -1.3435 19.7822 -9.5100 -3.4008 -7.1250 0.0000 -0.0000 -5.1261 19.9056 3.0868 -0.0000 -0.0000 0.0000 91.0351 -1.6162 10.4392 -15.0740 24.2492 -3.2563 0.0000 -0.0000 -2.2615 -4.7349 -55.0424 3.8836 7.1250 -0.0000 -0.0000 76.8537 -73.5234 -59.6111
-1.2625 19.6059 20.2406 178.0300 -2.6700 -152.7160 0.0000 0.0000 0.0000 -22.4479 -14.0298 -18.5275 0.0974 2.0126 5.5405 0.1827 -2.7810 -7.5919 1.7749 -8.3805 -23.8758 0.0000 0.0000 0.0000 17.5938 13.5078 -20.1185 -0.1092 -2.1312 5.8683 -0.9633 3.6812 -17.6785 -1.4545 7.6229 -21.5744 -8.4235 -2.9676 -31.8544 -0.4970 -1.6296 -1.6222 3.2264 -1.6123 14.8962 0.2622 -3.4036 -5.5658 2.7374 -4.9302 7.5495 0.6126 -2.3703 3.4914 0.0000 0.0000 0.0000 -84.1304 -0.3973 27.2928 10.4872 -17.4981 -1.6184 -0.0000 0.0000 -1.3193 20.6479 -10.7377 -4.0160 -7.1250 0.0000 -0.0000 -4.5300 18.5443 2.8630 0.0000 0.0000 0.0000 91.0708 -1.5026 10.0453 -14.8392 23.9217 -3.1605 0.0000 -0.0000 -2.0340 -3.9880 -55.7218 3.2970 7.1250 -0.0000 -0.0000 79.3577 -73.3703 -61.8611
